<svg xmlns="http://www.w3.org/2000/svg" id="Capa_2" data-name="Capa 2" viewBox="0 0 392.1 94.49"><defs><style>      .cls-1 {        fill: #fff5e0;      }    </style></defs><g id="Capa_1-2" data-name="Capa 1"><g><g><path class="cls-1" d="M8.57,53c-2.56-1.35-5.19-3.05-5.19-5.6,0-2.18,1.73-3.95,4.66-3.95,2.11,0,3.68.6,5.26,1.39l.94-2.22c-1.35-.87-3.87-1.69-6.35-1.69-5.11,0-7.37,3.5-7.37,6.47,0,3.65,2.52,5.64,6.39,7.93,3.38,2.03,5.57,3.57,5.57,6.47,0,1.88-1.84,4.06-5.19,4.06-2.67,0-4.7-1.13-6.17-2.14l-1.13,2.26c1.39,1.2,3.65,2.33,7.48,2.37,4.32.04,7.71-2.14,7.82-6.66.11-3.38-2.03-6.17-6.73-8.69Z"></path><path class="cls-1" d="M30.24,41.12l-11.84,26.74h3.08l2.82-6.51h12.3l2.78,6.51h3.08l-11.7-26.74h-.53ZM25.28,59.06l5.19-12.11,5.08,12.11h-10.27Z"></path><polygon class="cls-1" points="62.62 52.36 47.54 41.12 47.13 41.38 47.13 67.85 49.83 67.85 49.83 46.31 62.62 55.75 62.62 67.85 65.36 67.85 65.36 41.46 62.62 41.46 62.62 52.36"></polygon><polygon class="cls-1" points="80.11 67.85 80.11 43.83 87.07 43.83 87.07 41.46 70.37 41.46 70.37 43.83 77.29 43.83 77.29 67.85 80.11 67.85"></polygon><path class="cls-1" d="M102.57,40.93c-7.9,0-13.69,5.98-13.69,13.76s5.79,13.69,13.69,13.69,13.73-5.98,13.73-13.69-5.87-13.76-13.73-13.76ZM102.57,65.9c-5.87,0-10.64-4.63-10.64-11.21s4.78-11.28,10.64-11.28,10.68,4.7,10.68,11.28-4.85,11.21-10.68,11.21Z"></path><path class="cls-1" d="M154.36,54.73c0-5.87-3.8-15.72-20.91-13.24v26.36c16.73,2.37,20.91-7.56,20.91-13.12ZM136.31,43.9c10.12-1.32,15,4.32,15,10.83,0,7.63-6.92,11.73-15,10.75v-21.58Z"></path><path class="cls-1" d="M186.15,54.69c0-7.78-5.87-13.76-13.73-13.76s-13.69,5.98-13.69,13.76,5.79,13.69,13.69,13.69,13.73-5.98,13.73-13.69ZM172.42,65.9c-5.87,0-10.64-4.63-10.64-11.21s4.78-11.28,10.64-11.28,10.68,4.7,10.68,11.28-4.85,11.21-10.68,11.21Z"></path><polygon class="cls-1" points="192.73 41.12 192.24 41.31 192.24 67.85 195.06 67.85 195.06 47.36 202.73 55.67 203.18 55.67 210.89 47.36 210.89 67.85 213.67 67.85 213.67 41.31 213.18 41.12 202.99 51.95 192.73 41.12"></polygon><rect class="cls-1" x="221.4" y="41.46" width="2.82" height="26.4"></rect><polygon class="cls-1" points="250.13 67.85 250.13 41.46 247.38 41.46 247.38 52.36 232.31 41.12 231.89 41.38 231.89 67.85 234.6 67.85 234.6 46.31 247.38 55.75 247.38 67.85 250.13 67.85"></polygon><path class="cls-1" d="M280.38,64.62v-8.27h-7.18v2.33h4.4v4.85c-1.54,1.28-4.4,2.41-7.22,2.41-6.47,0-11.05-4.85-11.05-11.32s4.78-11.21,10.68-11.21c3.65,0,6.28,1.69,8.2,3.38.56-.68,1.13-1.43,1.69-2.11-2.03-1.77-5.19-3.76-9.96-3.76-7.45,0-13.73,5.79-13.73,13.73,0,7.48,5.6,13.73,14.1,13.73,3.27,0,6.69-.68,10.08-3.76Z"></path><path class="cls-1" d="M298.75,40.93c-7.9,0-13.69,5.98-13.69,13.76s5.79,13.69,13.69,13.69,13.73-5.98,13.73-13.69-5.87-13.76-13.73-13.76ZM298.75,65.9c-5.87,0-10.64-4.63-10.64-11.21s4.78-11.28,10.64-11.28,10.68,4.7,10.68,11.28-4.85,11.21-10.68,11.21Z"></path><path class="cls-1" d="M340.38,52.89c1.28-.75,2.78-2.67,2.78-5.15,0-5.23-4.51-6.62-8.99-6.62-1.58,0-3.16.19-4.55.41v26.32c1.73.23,3.42.34,5.08.34,5.75,0,11.51-1.8,11.51-8.12,0-3.84-2.71-6.62-5.83-7.18ZM332.48,43.75c.6-.11,1.35-.19,2.14-.19,2.63,0,5.75.87,5.75,4.32,0,2.29-1.73,4.32-4.14,4.44h-3.76v-8.57ZM335.27,65.67c-.9,0-1.88-.08-2.78-.23v-10.94h4.51c2.97,0,6.32,1.43,6.32,5.49s-3.87,5.68-8.05,5.68Z"></path><path class="cls-1" d="M360.62,41.12l-11.84,26.74h3.08l2.82-6.51h12.3l2.78,6.51h3.08l-11.7-26.74h-.53ZM355.65,59.06l5.19-12.11,5.08,12.11h-10.27Z"></path><polygon class="cls-1" points="382.02 51.8 375.14 41.46 371.79 41.46 380.48 54.66 380.48 67.85 383.33 67.85 383.33 54.66 392.1 41.46 388.97 41.46 382.02 51.8"></polygon></g><path class="cls-1" d="M207.59,12.16c-.03-.17,0-.35-.02-.52-.12-.59-.93-.68-1.35-1.02-.18-.12-.15-.3-.04-.46.12-.18.23-.41.29-.63.14-.46.18-.95,0-1.41-.09-.24-.19-.58-.49-.64-.35,0-.61.34-.84.56-.31.32-.61.64-.84,1.02-.26.42-.56.84-1.02,1.07-.26.19-.58.3-.83.5-.3.25-.47.6-.69.91-.13.17-.25.35-.37.53-.22.27-.54.46-.87.58-.35.07-.7,0-1.06.01-.36,0-.72,0-1.08.02-.12,0-.62.08-.61-.1.06-.28.25-.52.38-.77.1-.17.21-.34.35-.48.15-.13.33-.22.48-.34.55-.44.93-1.06,1.55-1.41.58-.4,1.09-.46,1.79-.48.55.03.84-.28.78-.82-.04-.31-.18-.59-.26-.89-.1-.42-.13-.87-.43-1.21-.13-.15-.32-.23-.51-.29-.17-.04-.31-.13-.4-.28-.19-.27-.43-.5-.66-.73-.11-.14-.29-.25-.48-.22-.4.08-.4.54-.5.86-.06.21-.12.42-.24.62-.1.16-.22.31-.32.47-.16.26-.29.51-.47.76-.12.17-.25.33-.33.52-.06.17-.09.35-.11.53-.02.56-.18,1.11-.52,1.57-.07.09-.16.17-.24.26-.12.13-.23.28-.38.38-.28.2-.54.42-.87.56-.04.01-.08.04-.1-.02h0c-.04-.16,0-.32-.01-.47,0-.2,0-.41.02-.61.02-.34.1-.67.13-1.01.02-.23.03-.47.05-.7.04-.29.11-.58.21-.86.11-.28.23-.57.24-.87.07-1.03-.02-1.87.69-2.71.18-.28.44-.52.52-.85.07-.44-.58-.93-1-.86-.59.1-.68.71-.84,1.17-.06.14-.14.28-.21.42-.19.4-.4.81-.51,1.24-.03.15-.03.3-.08.44-.03.09-.08.17-.13.25-.12-.4-.26-.8-.27-1.21,0-.35.1-.71.12-1.07,0-.35,0-.7.09-1.05.04-.24,0-.48-.06-.71-.05-.19-.08-.38-.2-.54-.19-.25-.51-.35-.76-.54-.17-.13-.28-.32-.43-.48-.32-.26-.75-.04-1.1,0-.15.03-.34.05-.45.17-.28.36-.08.85.07,1.24.07.19.13.38.23.56.17.32.38.6.51.95.11.26.16.53.21.81.05.27.1.54.1.81-.02.85-.08,1.74.1,2.59.1.49.24.98.31,1.47.06.44.04.89.08,1.33.07.57.13,1.15.1,1.73,0,.24.06.49.18.71.11.21.26.4.3.63.02.25-.04.48-.07.73-.03.14-.02.32-.13.43-.23.11-.53-.02-.76-.1-.44-.2-.65-.62-.64-1.07-.04-.37.03-.74.05-1.11-.01-.3-.06-.6-.13-.89-.08-.26-.18-.52-.32-.75-.18-.34-.28-.58-.21-.97.03-.36.25-.7.21-1.07-.07-.41-.36-.76-.39-1.18-.04-.32.01-.66-.05-.98-.04-.34-.14-.67-.52-.77-.21-.05-.43.02-.6.14-.13.1-.21.25-.31.38-.06.07-.13.14-.23.14-.11,0-.19-.1-.29-.15-.15-.09-.32-.13-.49-.13-.43,0-.86.01-1.24.22-.16.06-.35.1-.47.23-.15.16-.23.37-.31.57-.1.2-.18.42-.17.64-.02.48.17.62.55.87.15.12.31.22.45.34.1.11.18.24.27.35.28.28.41.64.53,1,.11.35.25.7.35,1.06.02.08.07.16.07.25-.1.06-.23-.03-.33-.06-.3-.14-.61-.25-.88-.44-.16-.13-.24-.3-.33-.48-.15-.47-.58-.54-1-.66-.23-.06-.47-.12-.7-.07-.34.08-.55.39-.68.69-.04.12-.01.25-.01.38.01.2-.08.15-.23.18-.24.06-.38.29-.53.46-.26.34-.35.77-.5,1.16-.14.37.28.67.51.92.07.07.14.13.19.21.08.17.12.37.15.55.03.27.09.58.36.72.51.27,1.07-.36,1.57-.46.23-.07.44-.02.68-.06.42-.06.65-.42.96-.66.26-.19.59-.23.91-.3,0,0,.44-.03.76.15.06.04.12.07.16.12.34.48.3,1.09.24,1.63-.04.39-.08.77-.11,1.16-.02.34.06.76-.27.98-.27.2-.57.31-.91.37-.26.06-.5.2-.77.24-.35.04-.67-.14-1-.21-.29-.11-.59-.05-.89-.08-.28,0-.8-.11-.91.21-.16.44.23.8.49,1.11.23.33.4.72.63,1.07.1.21.27.43.51.51.42.16.92.21,1.14.66.11.19.28.34.41.52.31.41.01.66.61,1.06.16.1.33.2.53.23.15.01.3.03.44.07.24.06.5.26.71.04.4-.44.2-1.16.31-1.71.04-.3.12-.61.07-.92-.08-.41-.23-.84-.19-1.27.02-.21.15-.39.28-.56.13-.15.26-.36.49-.39.3-.02.58.04.89.09.2.03.41.04.59.13.42.31.21.9.42,1.31.49.9.7.1.56,1.55-.06.77-.25,1.52-.37,2.28-.08.43-.02.88.05,1.31.08.33-.09,1.13.17,1.33.23.17.71-.1.84-.3.38-.44.48-1.01.64-1.55.06-.18.12-.36.21-.54.05-.09.08-.21.19-.26.05-.02.1.03.13.07.2.37.53.19.83.08.48-.14.56-.22.88-.59.23-.21.54-.33.82-.47.71-.21,1.63-.54.95-1.39-.18-.2-.39-.36-.58-.55-.28-.21-.55-.44-.85-.64-.22-.14-.48-.26-.57-.52-.14-.3-.05-.74-.41-.91-.37-.21-.83-.23-1.23-.41.14-.1.31-.16.49-.18.2-.03.4,0,.59-.05.26-.11.55-.03.8.06.17.07.3.2.48.25.45.15.93.15,1.39.27.2.04.33.2.48.33.26.25.5.53.79.75.17.14.35.27.58.3.29.02.57-.07.86-.03.24.03.46.12.69.17.26.05.51.14.78.16.5-.01.79-.18.76-.7,0-.21-.01-.42-.02-.63,0-.15-.01-.3-.08-.44-.12-.23-.35-.36-.56-.49-.03-.02-.07-.05-.09-.08-.11-.17-.16-.37-.26-.54-.09-.16-.21-.33-.37-.43-.27-.14-.59-.23-.89-.21-.35.06-.68.19-1.02.3-.12.05-.24.1-.37.1-.22,0-.42-.13-.61-.22-.24-.12-.48-.24-.73-.33-.4-.15-.81-.18-1.23-.15-.87-.01-1.73.09-2.58-.16-.2-.06-.4-.15-.59-.23-.06-.03-.16-.06-.2-.12.03-.36.67-.42.94-.58.28-.15.57-.28.87-.4.2-.08.39-.19.6-.24.15-.02.3,0,.45.01.44.03.88,0,1.31-.07.31-.08.63-.13.93-.24.16-.07.32-.15.49-.19.38-.07.77-.02,1.15-.04.34.02.63-.13.94-.22.79-.15,1.6-.23,2.39-.37.61-.13,1.35-.01,1.84-.47.32-.28.05-.73.02-1.08Z"></path><g><path class="cls-1" d="M69.9,87.04c.47-.28,1-.43,1.6-.43.54,0,1.03.1,1.48.29.45.19.88.56,1.27,1.11l1.27-.38c-.41-.69-.93-1.24-1.57-1.65-.64-.41-1.46-.61-2.46-.61-.64,0-1.23.11-1.77.34-.54.22-1.01.54-1.41.94-.4.41-.71.88-.94,1.44-.22.55-.34,1.16-.34,1.81,0,.86.19,1.64.56,2.32.37.69.89,1.22,1.56,1.62.67.39,1.45.59,2.33.59,1,0,1.82-.2,2.46-.61.64-.41,1.16-.96,1.57-1.65l-1.27-.37c-.4.54-.82.91-1.27,1.11-.45.19-.95.29-1.48.29-.59,0-1.13-.14-1.6-.43-.47-.28-.84-.67-1.12-1.17-.28-.5-.41-1.06-.41-1.69s.14-1.2.41-1.69c.28-.49.65-.88,1.12-1.16Z"></path><path class="cls-1" d="M86.45,86.65c-.41-.41-.89-.72-1.44-.94-.55-.22-1.15-.34-1.8-.34s-1.26.11-1.82.34c-.56.22-1.04.54-1.46.94-.41.41-.74.88-.96,1.44-.23.55-.34,1.16-.34,1.81s.11,1.25.34,1.8c.23.55.55,1.03.96,1.44s.9.73,1.46.95c.56.22,1.16.34,1.82.34s1.25-.11,1.8-.34c.55-.22,1.03-.54,1.44-.95.41-.41.73-.89.96-1.44.23-.55.34-1.15.34-1.8s-.11-1.26-.34-1.81c-.23-.55-.55-1.03-.96-1.44ZM86.01,91.58c-.28.5-.66.89-1.15,1.17-.48.28-1.03.43-1.66.43s-1.18-.14-1.67-.43c-.49-.28-.88-.67-1.16-1.17-.28-.5-.43-1.06-.43-1.69s.14-1.2.43-1.69c.28-.49.67-.88,1.16-1.16.49-.28,1.05-.43,1.67-.43s1.17.14,1.66.43c.48.28.86.67,1.15,1.16.28.49.42,1.06.42,1.69s-.14,1.19-.42,1.69Z"></path><polygon class="cls-1" points="97.79 91.92 92.82 85.48 91.72 85.48 91.72 94.29 93.01 94.29 93.01 87.85 97.98 94.29 99.08 94.29 99.08 85.48 97.79 85.48 97.79 91.92"></polygon><polygon class="cls-1" points="106.7 93.06 104 85.48 102.68 85.48 105.82 94.29 107.58 94.29 110.72 85.48 109.4 85.48 106.7 93.06"></polygon><polygon class="cls-1" points="114.32 94.29 119.67 94.29 119.67 93.06 115.61 93.06 115.61 90.48 118.91 90.48 118.91 89.26 115.61 89.26 115.61 86.7 119.67 86.7 119.67 85.48 114.32 85.48 114.32 94.29"></polygon><polygon class="cls-1" points="129.84 91.92 124.87 85.48 123.77 85.48 123.77 94.29 125.07 94.29 125.07 87.85 130.04 94.29 131.13 94.29 131.13 85.48 129.84 85.48 129.84 91.92"></polygon><polygon class="cls-1" points="134.73 86.7 137.49 86.7 137.49 94.29 138.78 94.29 138.78 86.7 141.67 86.7 141.67 85.48 134.73 85.48 134.73 86.7"></polygon><rect class="cls-1" x="145.26" y="85.48" width="1.29" height="8.81"></rect><path class="cls-1" d="M158.36,86.65c-.41-.41-.89-.72-1.44-.94-.55-.22-1.15-.34-1.8-.34s-1.26.11-1.82.34c-.56.22-1.04.54-1.46.94-.41.41-.74.88-.96,1.44-.23.55-.34,1.16-.34,1.81s.11,1.25.34,1.8c.23.55.55,1.03.96,1.44s.9.73,1.46.95c.56.22,1.16.34,1.82.34s1.25-.11,1.8-.34c.55-.22,1.03-.54,1.44-.95.41-.41.73-.89.96-1.44.23-.55.34-1.15.34-1.8s-.11-1.26-.34-1.81c-.23-.55-.55-1.03-.96-1.44ZM157.92,91.58c-.28.5-.66.89-1.15,1.17-.48.28-1.03.43-1.66.43s-1.18-.14-1.67-.43c-.49-.28-.88-.67-1.16-1.17-.28-.5-.43-1.06-.43-1.69s.14-1.2.43-1.69c.28-.49.67-.88,1.16-1.16.49-.28,1.05-.43,1.67-.43s1.17.14,1.66.43c.48.28.86.67,1.15,1.16.28.49.42,1.06.42,1.69s-.14,1.19-.42,1.69Z"></path><polygon class="cls-1" points="169.7 91.92 164.73 85.48 163.63 85.48 163.63 94.29 164.92 94.29 164.92 87.85 169.89 94.29 170.99 94.29 170.99 85.48 169.7 85.48 169.7 91.92"></polygon><path class="cls-1" d="M186.54,90.81c.45-.25.8-.59,1.05-1.02.25-.43.38-.91.38-1.45s-.12-1.02-.38-1.45c-.25-.43-.6-.77-1.05-1.03-.45-.26-.98-.38-1.58-.38h-3.23v8.81h1.29v-3.1h1.88l1.75,3.1h1.42l-1.88-3.34c.12-.05.25-.08.36-.14ZM183.02,86.7h1.72c.57,0,1.03.14,1.37.41.34.28.52.69.52,1.23,0,.51-.17.91-.52,1.2-.34.29-.8.43-1.37.43h-1.72v-3.27Z"></path><polygon class="cls-1" points="192.14 94.29 197.49 94.29 197.49 93.06 193.43 93.06 193.43 90.48 196.73 90.48 196.73 89.26 193.43 89.26 193.43 86.7 197.49 86.7 197.49 85.48 192.14 85.48 192.14 94.29"></polygon><path class="cls-1" d="M206.1,89.85c-.41-.25-.98-.46-1.7-.64-.72-.17-1.2-.37-1.44-.61-.25-.23-.37-.51-.37-.83,0-.37.13-.66.39-.85.26-.2.64-.3,1.15-.3.33,0,.64.07.92.21.29.14.57.38.83.71l1.09-.7c-.31-.46-.69-.82-1.14-1.08-.45-.26-1.02-.39-1.71-.39-.58,0-1.08.1-1.5.3-.42.2-.75.48-.97.84-.22.36-.34.78-.34,1.26,0,.39.07.75.22,1.08.15.33.41.63.78.88.37.26.9.47,1.57.64.53.13.95.27,1.24.43.29.15.5.32.61.5.12.18.17.39.17.63,0,.41-.14.72-.41.96-.27.23-.67.35-1.2.35s-1-.12-1.36-.36c-.36-.24-.69-.63-1-1.18l-1.07.61c.24.54.54.97.89,1.29.35.32.74.54,1.17.68.43.14.87.21,1.33.21.59,0,1.11-.11,1.55-.34.44-.23.78-.53,1.02-.91.24-.38.36-.81.36-1.28s-.08-.88-.25-1.22c-.17-.34-.46-.63-.87-.88Z"></path><path class="cls-1" d="M218.34,86.65c-.41-.41-.89-.72-1.44-.94-.55-.22-1.15-.34-1.8-.34s-1.26.11-1.82.34c-.56.22-1.04.54-1.46.94-.41.41-.74.88-.96,1.44-.23.55-.34,1.16-.34,1.81s.11,1.25.34,1.8c.23.55.55,1.03.96,1.44.41.41.9.73,1.46.95.56.22,1.16.34,1.82.34s1.25-.11,1.8-.34c.55-.22,1.03-.54,1.44-.95.41-.41.73-.89.96-1.44.23-.55.34-1.15.34-1.8s-.11-1.26-.34-1.81c-.23-.55-.55-1.03-.96-1.44ZM217.9,91.58c-.28.5-.66.89-1.15,1.17-.48.28-1.03.43-1.66.43s-1.18-.14-1.67-.43c-.49-.28-.88-.67-1.16-1.17-.28-.5-.43-1.06-.43-1.69s.14-1.2.43-1.69c.28-.49.67-.88,1.16-1.16.49-.28,1.05-.43,1.67-.43s1.17.14,1.66.43c.48.28.86.67,1.15,1.16.28.49.42,1.06.42,1.69s-.14,1.19-.42,1.69Z"></path><path class="cls-1" d="M228.42,90.81c.45-.25.8-.59,1.05-1.02.25-.43.38-.91.38-1.45s-.12-1.02-.38-1.45c-.25-.43-.6-.77-1.05-1.03-.45-.26-.98-.38-1.58-.38h-3.23v8.81h1.29v-3.1h1.88l1.74,3.1h1.42l-1.88-3.34c.12-.05.25-.08.36-.14ZM224.9,86.7h1.72c.57,0,1.03.14,1.37.41.34.28.52.69.52,1.23,0,.51-.17.91-.52,1.2-.35.29-.8.43-1.37.43h-1.72v-3.27Z"></path><polygon class="cls-1" points="233.05 86.7 235.81 86.7 235.81 94.29 237.1 94.29 237.1 86.7 239.99 86.7 239.99 85.48 233.05 85.48 233.05 86.7"></polygon><path class="cls-1" d="M251.7,88.53c-.28-.26-.42-.57-.42-.95,0-.3.11-.57.33-.81.22-.24.54-.36.98-.36.23,0,.46.04.69.12.22.08.43.21.62.4l.87-.79c-.24-.28-.5-.5-.77-.65-.27-.15-.54-.24-.8-.29-.26-.05-.51-.07-.74-.07-.53,0-.99.12-1.36.37-.37.25-.65.55-.84.92-.19.37-.28.75-.28,1.15,0,.66.23,1.21.68,1.62.11.1.23.19.37.27-.48.23-.85.53-1.12.9-.27.38-.41.81-.41,1.27,0,.51.12.97.36,1.4.24.42.58.76,1.03,1.01.45.25,1,.37,1.65.37.28,0,.59-.05.93-.14.34-.09.66-.25.96-.49.3-.24.55-.57.74-.99.19-.42.28-.97.28-1.64v-1.03h1.29v-1.22h-3.75c-.57,0-.99-.13-1.27-.38ZM254.14,91.03c0,.71-.13,1.23-.4,1.58-.27.35-.69.52-1.28.52-.53,0-.93-.14-1.22-.41-.29-.27-.43-.64-.43-1.09s.15-.83.44-1.11c.29-.27.7-.41,1.23-.41h1.67v.91Z"></path><path class="cls-1" d="M268.77,87.04c.47-.28,1-.43,1.6-.43.54,0,1.03.1,1.48.29.45.19.88.56,1.27,1.11l1.27-.38c-.41-.69-.93-1.24-1.57-1.65-.64-.41-1.46-.61-2.46-.61-.64,0-1.23.11-1.77.34-.54.22-1.01.54-1.41.94-.4.41-.71.88-.94,1.44-.22.55-.34,1.16-.34,1.81,0,.86.19,1.64.56,2.32.37.69.89,1.22,1.56,1.62.67.39,1.45.59,2.33.59,1,0,1.82-.2,2.46-.61.64-.41,1.16-.96,1.57-1.65l-1.27-.37c-.4.54-.82.91-1.27,1.11-.45.19-.95.29-1.48.29-.59,0-1.13-.14-1.6-.43-.47-.28-.84-.67-1.12-1.17-.28-.5-.41-1.06-.41-1.69s.14-1.2.41-1.69c.28-.49.65-.88,1.12-1.16Z"></path><path class="cls-1" d="M280.47,85.48l-3.14,8.81h1.32l.73-2.06h3.94l.73,2.06h1.32l-3.14-8.81h-1.76ZM279.81,91.02l1.54-4.3,1.54,4.3h-3.07Z"></path><path class="cls-1" d="M293.59,89.85c-.41-.25-.98-.46-1.7-.64-.72-.17-1.2-.37-1.44-.61-.25-.23-.37-.51-.37-.83,0-.37.13-.66.39-.85.26-.2.64-.3,1.15-.3.33,0,.64.07.92.21.29.14.57.38.83.71l1.09-.7c-.31-.46-.69-.82-1.14-1.08-.45-.26-1.02-.39-1.71-.39-.58,0-1.08.1-1.5.3-.42.2-.75.48-.97.84-.22.36-.34.78-.34,1.26,0,.39.07.75.22,1.08.15.33.41.63.78.88.37.26.9.47,1.57.64.53.13.95.27,1.24.43.29.15.5.32.61.5.12.18.17.39.17.63,0,.41-.14.72-.41.96-.27.23-.67.35-1.2.35s-1-.12-1.36-.36c-.36-.24-.69-.63-1-1.18l-1.07.61c.24.54.54.97.89,1.29.35.32.74.54,1.17.68.43.14.87.21,1.33.21.59,0,1.11-.11,1.55-.34.44-.23.78-.53,1.02-.91.24-.38.36-.81.36-1.28s-.08-.88-.25-1.22c-.17-.34-.46-.63-.87-.88Z"></path><rect class="cls-1" x="298.72" y="85.48" width="1.29" height="8.81"></rect><polygon class="cls-1" points="310.66 91.92 305.69 85.48 304.6 85.48 304.6 94.29 305.89 94.29 305.89 87.85 310.86 94.29 311.96 94.29 311.96 85.48 310.66 85.48 310.66 91.92"></polygon><path class="cls-1" d="M323.75,86.65c-.41-.41-.89-.72-1.44-.94-.55-.22-1.15-.34-1.8-.34s-1.26.11-1.82.34c-.56.22-1.04.54-1.46.94-.41.41-.74.88-.96,1.44-.23.55-.34,1.16-.34,1.81s.11,1.25.34,1.8c.23.55.55,1.03.96,1.44s.9.73,1.46.95c.56.22,1.16.34,1.82.34s1.25-.11,1.8-.34c.55-.22,1.03-.54,1.44-.95.41-.41.73-.89.96-1.44.23-.55.34-1.15.34-1.8s-.11-1.26-.34-1.81c-.23-.55-.55-1.03-.96-1.44ZM323.31,91.58c-.28.5-.66.89-1.15,1.17-.48.28-1.03.43-1.66.43s-1.18-.14-1.67-.43c-.49-.28-.88-.67-1.16-1.17-.28-.5-.43-1.06-.43-1.69s.14-1.2.43-1.69c.28-.49.67-.88,1.16-1.16.49-.28,1.05-.43,1.67-.43s1.17.14,1.66.43c.48.28.86.67,1.15,1.16.28.49.42,1.06.42,1.69s-.14,1.19-.42,1.69Z"></path></g></g></g></svg>